# xmcd CD database file
# Generated: Wed May 2 20:46:29 2001 by KSCD
# 
# Track frame offsets:
#       150
#       18090
#       30606
#       45913
#       60040
#       73869
#       89011
#       107075
#       122426
#       137862
#       156659
#
# Disc length: 2269 seconds
#
# Revision: 5
# Processed by: cddbd v1.4b41PL1 Copyright (c) Steve Scherf et al.
# Submitted via: Kscd 1.2.7
#
DISCID=8b08db0b
DTITLE=Brenn Hill - Rangefire
DYEAR=1900
DGENRE=
TTITLE0=Call You Cowboy
TTITLE1=Powder River Queen
TTITLE2=Nights Like This
TTITLE3=M. C. Horses
TTITLE4=Lady Idaho
TTITLE5=On Avon
TTITLE6=The Cattle and the Train
TTITLE7=Rewin the West
TTITLE8=Standing Deer's Lament
TTITLE9=Rangefire
TTITLE10=Hill Family Song
EXTD=
EXTT0=
EXTT1=
EXTT2=
EXTT3=
EXTT4=
EXTT5=
EXTT6=
EXTT7=
EXTT8=
EXTT9=
EXTT10=
PLAYORDER=
